<?xml version="1.0" encoding="UTF-8"?>
<svg xmlns="http://www.w3.org/2000/svg" viewBox="0 184 485 468">
  <path fill="#000" d="M485,290v11c-3.82,11.55-10.58,20.99-18.03,30.47-15.64,19.91-34.49,38.63-50.95,58.05-64.29,75.87-125.61,155.11-191.51,229.49-11.71,13.22-24.5,29.35-42.51,32.99h-39c-1.04-1.66-3.79-1-5.49-1.02-12.83-.14-25.7.02-38.51.02-9.65,0-19.35,0-29,0-6.65,0-13.35,0-20,0H0v-170c19.09-20.98,26.96-39.08,58.45-41.05,23.53-1.47,55.4-1.13,79.09,0,4.33.21,8.83,1.83,13.46,1.05l-94,117.98c22.5.27,45.04-.31,67.54-.03,2.36.03,4.55,1.03,6.92,1.08,15.3.31,18.23.75,28.57-10.51,10.69-11.65,20.81-25.48,31.46-37.54,53.68-60.79,113.18-121.5,161.91-186.09,3.64-4.82,19.55-25.55,20.43-29.63.37-1.74.49-3.37-.77-4.83-25.02-30.63-50.35-61.06-75.03-91.97-3.82-4.79-8.59-9.96-11.02-15.48h117.5c24.92,30.71,51.84,60.03,74.67,92.33l5.83,13.67Z"/>
</svg>
